<svg width="1024pt" height="1024pt" viewBox="0 0 1024 1024" fill="none"
	xmlns="http://www.w3.org/2000/svg" xmlns:xlink="http://www.w3.org/1999/xlink" xml:space="preserve">
    <style>
        path {
            fill: #000000;
        }
        @media (prefers-color-scheme: dark) {
            path {
                fill: #ffffff;
            }
        }
    </style>
    <path fill-rule="evenodd" clip-rule="evenodd" d="M298.4,335.8c6.5-0.8,13-0.8,19.5-0.8c157,0,314,0,471,0c10,0.1,20.2-0.5,30,1.5c18,3.2,34.9,12.8,46.2,27.3
	c14.8,18.7,18.9,44.2,14.4,67.2c-9.6,47.4-19.3,94.8-29,142.2c-1.9,9.3-3.5,18.7-6.6,27.7c-9.6,27.9-29.2,52.1-53.8,68.2
	c-19,12.4-41.4,20.1-64.2,19.9c-169,0-338,0-507,0c-16.1,0-32.4-4.1-45.7-13.3c-12.5-8.5-21.8-21.4-26.4-35.7
	c-5.7-17.3-5.1-36.1-0.3-53.6c13.7-50.9,27.3-101.7,41-152.6c7.4-28.3,25.3-53.2,48.2-71C253.8,348.7,275.5,338.6,298.4,335.8
	 M431,438.1c-18.3,10-32.9,26.2-41.9,45.1c-7.1,15.2-11.5,32.1-10.8,48.9c0.6,12.2,5.2,24.7,14.6,32.8c10,9,23.9,12.5,37.1,12.1
	c19.6,0.5,38.3-8.4,52.7-21.2c-4.2-7.4-8.5-14.7-12.6-22.1c-7.3,5.7-15.4,10.9-24.7,12.6c-8.5,1.8-18.4,0.2-24.4-6.5
	c-4.9-5.7-6.2-13.7-6-21c1.2-18.1,8-36.6,21.2-49.4c8.5-8.2,20.6-13.8,32.5-11.5c6.8,1.1,12.2,5.8,16.7,10.8
	c8.1-7.4,16-14.9,24.1-22.2c-7.1-10.6-19.2-17.1-31.7-18.6C461.8,426.2,445.2,430.3,431,438.1 M549.1,445.2
	c-19.9,14.5-33.6,36.7-39.2,60.6c-2.3,10.2-3.8,20.8-2,31.2c1.6,12.1,8.1,23.8,18.5,30.5c13.1,8.9,29.7,10.4,45,9.1
	c15.1-1.8,29.8-7.2,42.3-16c1.9-1,2.1-3.3,2.6-5.1c5.5-21.3,11.5-42.5,16.9-63.9c-18,0-36-0.1-54,0.1c-2.4,9.5-5.1,19-7.5,28.6
	c7.6,0,15.1,0,22.7,0c-2,7.6-3.8,15.3-6.2,22.8c-3.1,2.5-7.4,3-11.3,3.7c-8.3,0.6-17.3-0.7-24.1-5.7c-7-5.3-9.1-14.8-8.8-23.1
	c1.5-16.9,7.4-34.1,19.4-46.5c9.4-9.6,23-15.6,36.5-13.7c7.5,0.7,14.1,5.2,18.7,10.9c8.2-7.3,16.3-14.8,24.4-22.3
	c-7.8-11.1-21-17.5-34.3-18.6C587.6,425.9,566.1,432.7,549.1,445.2 M306.9,430.3c-27.8,48-55.5,96-83.3,144c11.8,0,23.7,0,35.5,0
	c5.8-11,11.4-22,17.2-33c14.1,0,28.1,0.1,42.2-0.1c-0.1,11-0.3,22-0.5,33.1c12.2,0,24.4,0,36.6,0c-2.2-48-4.1-96-6.3-144
	C334.6,430.3,320.7,430.3,306.9,430.3 M678.3,430.1c-12.9,48.1-25.7,96.1-38.6,144.2c11.1,0,22.2,0,33.4,0
	c6.3-25.1,14.5-49.8,18.5-75.5c1.5-8.5,2.4-17.2,4.3-25.6c2.6,11.3,4,22.9,6.5,34.2c5.6,22.3,10.9,44.7,16.5,66.9
	c11.9-0.1,23.7,0,35.6-0.1c12.8-48,25.6-96,38.5-144.1c-11.1-0.3-22.2,0-33.2-0.2c-1.3,4.1-2.2,8.2-3.4,12.4
	c-5.2,20.3-11.7,40.4-14.9,61.2c-1.7,9.2-2.6,18.5-4.4,27.7c-3.1-13.4-4.3-27.2-8-40.5c-5.2-20.2-10.1-40.6-15.4-60.8
	C701.9,430.1,690.1,430.1,678.3,430.1z" />
    <path fill-rule="evenodd" clip-rule="evenodd" d="M290.2,514.3c10.3-19.2,19.9-38.8,29.9-58.3c0.2,19.4-1.1,38.8-0.9,58.3C309.5,514.3,299.8,514.2,290.2,514.3z" />
</svg>